<svg xmlns="http://www.w3.org/2000/svg" xmlns:xlink="http://www.w3.org/1999/xlink" xmlns:lucid="lucid" width="450" height="137.22"><g transform="translate(-535 -220)" lucid:page-tab-id="0_0"><path d="M640 246c0-3.3 2.7-6 6-6h228c3.3 0 6 2.7 6 6v48c0 3.3-2.7 6-6 6H646c-3.3 0-6-2.7-6-6z" stroke="#000" stroke-opacity="0" stroke-width="3" fill="#fff" fill-opacity="0"/><use xlink:href="#a" transform="matrix(1,0,0,1,645,245) translate(51.58000000000002 34.263888888888886)"/><path d="M555 286c0-3.3 2.7-6 6-6h398c3.3 0 6 2.7 6 6v60.22c0 3.32-2.7 6-6 6H561c-3.3 0-6-2.68-6-6z" stroke="#000" stroke-opacity="0" stroke-width="3" fill="#fff" fill-opacity="0"/><use xlink:href="#b" transform="matrix(1,0,0,1,560,285) translate(36.6133333333334 41.02083333333333)"/><use xlink:href="#c" transform="matrix(1,0,0,1,560,285) translate(195.2266666666667 41.02083333333333)"/><use xlink:href="#d" transform="matrix(1,0,0,1,560,285) translate(279.2266666666667 41.02083333333333)"/><use xlink:href="#e" transform="matrix(1,0,0,1,560,285) translate(308.58666666666664 41.02083333333333)"/><defs><path fill="#ff1654" d="M792 0v-180H228v-105h564v-180H228v-105h564v-180H130l-83 83v584l83 83h662" id="f"/><path fill="#ff1654" d="M597 0v-311l-63-64 63-64v-228l-81-83H47V0h177v-285h195V0h178zM224-570h195v105H224v-105" id="g"/><path fill="#ff1654" d="M600-83v-584l-82-83H47V0h471zM224-570h198v390H224v-390" id="h"/><path fill="#ff1654" d="M596 0v-667l-82-83H128l-81 83V0h177v-285h195V0h177zM224-570h195v105H224v-105" id="i"/><path fill="#ff1654" d="M594-83v-300l-81-82H224v-105h370v-180H128l-81 83v300l81 82h289v105H47V0h466" id="j"/><g id="a"><use transform="matrix(0.031111111111111103,0,0,0.031111111111111103,0,0)" xlink:href="#f"/><use transform="matrix(0.031111111111111103,0,0,0.031111111111111103,26.19555555555555,0)" xlink:href="#g"/><use transform="matrix(0.031111111111111103,0,0,0.031111111111111103,46.29333333333332,0)" xlink:href="#h"/><use transform="matrix(0.031111111111111103,0,0,0.031111111111111103,66.48444444444442,0)" xlink:href="#i"/><use transform="matrix(0.031111111111111103,0,0,0.031111111111111103,86.6133333333333,0)" xlink:href="#j"/><use transform="matrix(0.031111111111111103,0,0,0.031111111111111103,106.71111111111108,0)" xlink:href="#i"/></g><path fill="#247ba0" d="M791-75v-300l-75-75H200v-150h591v-150H125l-75 75v300l75 75h516v150H50V0h666" id="k"/><path fill="#247ba0" d="M601-75v-600l-75-75H125l-75 75v600l75 75h401zm-150-75H200v-450h251v450" id="l"/><path fill="#247ba0" d="M200-300h396v-150H200v-150h395v-151l-470 1-75 75V0h150v-300" id="m"/><path fill="#247ba0" d="M598-600v-151l-548 1v150h203V0h150v-600h195" id="n"/><path fill="#247ba0" d="M50-750v675l75 75h577v-750H552v600H452v-600H302v600H200v-600H50" id="o"/><path fill="#247ba0" d="M599 0v-675l-76-75H125l-75 75V0h150v-300h249V0h150zM449-450H200v-150h249v150" id="p"/><path fill="#247ba0" d="M600 0v-300l-75-75 75-75v-225l-75-75H50V0h150v-300h250V0h150zM450-450H200v-150h250v150" id="q"/><path fill="#247ba0" d="M597 0v-150H200v-150h398v-150H200v-150h397v-150H125l-75 75v600l75 75h472" id="r"/><g id="b"><use transform="matrix(0.026666666666666658,0,0,0.026666666666666658,0,0)" xlink:href="#k"/><use transform="matrix(0.026666666666666658,0,0,0.026666666666666658,22.42666666666666,0)" xlink:href="#l"/><use transform="matrix(0.026666666666666658,0,0,0.026666666666666658,39.786666666666655,0)" xlink:href="#m"/><use transform="matrix(0.026666666666666658,0,0,0.026666666666666658,57.11999999999998,0)" xlink:href="#n"/><use transform="matrix(0.026666666666666658,0,0,0.026666666666666658,74.47999999999998,0)" xlink:href="#o"/><use transform="matrix(0.026666666666666658,0,0,0.026666666666666658,94.58666666666663,0)" xlink:href="#p"/><use transform="matrix(0.026666666666666658,0,0,0.026666666666666658,111.94666666666663,0)" xlink:href="#q"/><use transform="matrix(0.026666666666666658,0,0,0.026666666666666658,129.27999999999997,0)" xlink:href="#r"/></g><path fill="#247ba0" d="M701 0v-675l-75-75H50V0h150v-600h101V0h150v-600h100V0h150" id="s"/><path fill="#247ba0" d="M601-75v-600l-75-75H125l-75 75v600l75 75h401zm-150-75H200v-450h251v450zM343-990L231-877l75 75 112-113" id="t"/><path fill="#247ba0" d="M544-75v-675H394v600H200v-600H50V0h419" id="u"/><path fill="#247ba0" d="M200 0v-750H50V0h150" id="v"/><path fill="#247ba0" d="M395 0v-150H200v-600H50v675l75 75h270" id="w"/><g id="c"><use transform="matrix(0.026666666666666658,0,0,0.026666666666666658,0,0)" xlink:href="#s"/><use transform="matrix(0.026666666666666658,0,0,0.026666666666666658,20.02666666666666,0)" xlink:href="#t"/><use transform="matrix(0.026666666666666658,0,0,0.026666666666666658,37.386666666666656,0)" xlink:href="#u"/><use transform="matrix(0.026666666666666658,0,0,0.026666666666666658,53.359999999999985,0)" xlink:href="#v"/><use transform="matrix(0.026666666666666658,0,0,0.026666666666666658,60.02666666666665,0)" xlink:href="#w"/></g><path fill="#247ba0" d="M603-375v-375H453v300H200v-300H50v375l75 75h124V0h150v-300h129" id="x"/><use transform="matrix(0.026666666666666658,0,0,0.026666666666666658,0,0)" xlink:href="#x" id="d"/><path fill="#247ba0" d="M600-75v-225l-75-75 75-75v-225l-75-75H50V0h475zm-150-75H200v-150h250v150zm0-300H200v-150h250v150" id="y"/><g id="e"><use transform="matrix(0.026666666666666658,0,0,0.026666666666666658,0,0)" xlink:href="#o"/><use transform="matrix(0.026666666666666658,0,0,0.026666666666666658,20.10666666666666,0)" xlink:href="#r"/><use transform="matrix(0.026666666666666658,0,0,0.026666666666666658,37.43999999999998,0)" xlink:href="#y"/></g></defs></g></svg>