<svg id="Capa_1" enable-background="new 0 0 511.952 511.952" height="512" viewBox="0 0 511.952 511.952" width="512" xmlns="http://www.w3.org/2000/svg"><g><path d="m288.996 234.532-44.491-44.491c-5.858-5.858-15.355-5.858-21.213 0l-78.111 78.111c-18.502 18.502-18.503 48.608 0 67.11l21.543 21.543z" fill="#ffe14d"/><path d="m400.9 284.946-84.498-84.498c-5.858-5.858-15.355-5.858-21.213 0l-158.164 158.164c-12.184 12.184-31.542 13.286-45.03 2.563-5.969-4.746-14.549-4.257-19.941 1.135l-26.597 26.597c-16.388 16.388-16.388 43.054 0 59.443l33.263 33.263c40.452 40.452 106.272 40.452 146.725 0l175.455-175.454c5.858-5.858 5.858-15.355 0-21.213z" fill="#d5e8fe"/><path d="m400.9 284.946-32.818-32.818-72.458 44.174-199.39 199.389c40.13 25.641 94.181 20.953 129.212-14.078l175.454-175.454c5.858-5.858 5.858-15.355 0-21.213z" fill="#b5dbff"/><path d="m478.392 266.982c-1.585-19.4-7.896-41.967-18.756-67.072-20.1-46.462-54.477-97.215-89.716-132.454-8.04-8.041-16.461-15.602-25.139-22.61l-18.593-1.798-142.72 142.719 1.797 18.593c7.008 8.678 14.57 17.099 22.61 25.139 35.239 35.239 85.993 69.616 132.454 89.716 25.106 10.86 47.672 17.171 67.072 18.756 24.006 1.962 42.532-3.397 55.062-15.926 12.531-12.53 17.89-31.056 15.929-55.063z" fill="#09607d"/><path d="m344.772 44.855c-24.212-19.558-50.422-34.807-76.005-43.975-5.463-1.958-11.564-.589-15.668 3.514l-108.284 108.285c-4.103 4.103-5.472 10.205-3.514 15.666 9.168 25.583 24.416 51.794 43.974 76.007z" fill="#b5dbff"/><path d="m478.392 266.982c-1.585-19.4-7.896-41.967-18.756-67.072-6.352-14.683-14.133-29.793-22.913-44.708l-141.1 141.1c14.915 8.78 30.025 16.561 44.708 22.913 25.106 10.86 47.672 17.171 67.072 18.756 24.006 1.962 42.532-3.397 55.062-15.926 12.529-12.53 17.888-31.056 15.927-55.063z" fill="#07485e"/></g></svg>